<mxfile host="app.diagrams.net" agent="Mozilla/5.0 (Windows NT 10.0; Win64; x64) AppleWebKit/537.36 (KHTML, like Gecko) Chrome/132.0.0.0 Safari/537.36 OPR/117.0.0.0" version="26.2.13">
  <diagram name="Cliente" id="fbB43nGSsKICBZ5SO1As">
    <mxGraphModel dx="1689" dy="964" grid="1" gridSize="10" guides="1" tooltips="1" connect="1" arrows="1" fold="1" page="1" pageScale="1" pageWidth="827" pageHeight="1169" math="0" shadow="0">
      <root>
        <mxCell id="0" />
        <mxCell id="1" parent="0" />
        <mxCell id="Ek6N9CMWmfVQAumjDYVe-19" value="" style="triangle;whiteSpace=wrap;html=1;" vertex="1" parent="1">
          <mxGeometry x="120" y="600" width="60" height="160" as="geometry" />
        </mxCell>
        <mxCell id="8R9vUftq7AZVu_2EBlHA-4" value="" style="edgeStyle=orthogonalEdgeStyle;rounded=0;orthogonalLoop=1;jettySize=auto;html=1;" parent="1" source="8R9vUftq7AZVu_2EBlHA-1" target="8R9vUftq7AZVu_2EBlHA-3" edge="1">
          <mxGeometry relative="1" as="geometry" />
        </mxCell>
        <mxCell id="8R9vUftq7AZVu_2EBlHA-1" value="Inicio" style="ellipse;whiteSpace=wrap;html=1;aspect=fixed;" parent="1" vertex="1">
          <mxGeometry x="500" y="60" width="80" height="80" as="geometry" />
        </mxCell>
        <mxCell id="FvaYy1avRhP3Xkzn4hqu-2" value="" style="edgeStyle=orthogonalEdgeStyle;rounded=0;orthogonalLoop=1;jettySize=auto;html=1;" parent="1" source="8R9vUftq7AZVu_2EBlHA-3" target="FvaYy1avRhP3Xkzn4hqu-1" edge="1">
          <mxGeometry relative="1" as="geometry" />
        </mxCell>
        <UserObject label="Iniciar Sesion" link="data:page/id,S_Ap1ETLFoqmgrV6h_It" id="8R9vUftq7AZVu_2EBlHA-3">
          <mxCell style="shape=process;whiteSpace=wrap;html=1;backgroundOutline=1;" parent="1" vertex="1">
            <mxGeometry x="480" y="180" width="120" height="60" as="geometry" />
          </mxCell>
        </UserObject>
        <mxCell id="FvaYy1avRhP3Xkzn4hqu-5" value="" style="edgeStyle=orthogonalEdgeStyle;rounded=0;orthogonalLoop=1;jettySize=auto;html=1;" parent="1" source="FvaYy1avRhP3Xkzn4hqu-1" target="FvaYy1avRhP3Xkzn4hqu-4" edge="1">
          <mxGeometry relative="1" as="geometry" />
        </mxCell>
        <mxCell id="FvaYy1avRhP3Xkzn4hqu-1" value="Se envía solicita la información al servidor." style="whiteSpace=wrap;html=1;rounded=1;" parent="1" vertex="1">
          <mxGeometry x="480" y="280" width="120" height="60" as="geometry" />
        </mxCell>
        <mxCell id="FvaYy1avRhP3Xkzn4hqu-7" value="" style="edgeStyle=orthogonalEdgeStyle;rounded=0;orthogonalLoop=1;jettySize=auto;html=1;" parent="1" source="FvaYy1avRhP3Xkzn4hqu-4" target="FvaYy1avRhP3Xkzn4hqu-6" edge="1">
          <mxGeometry relative="1" as="geometry" />
        </mxCell>
        <mxCell id="FvaYy1avRhP3Xkzn4hqu-4" value="Se muestra una ventana de &quot;cargando&quot;" style="whiteSpace=wrap;html=1;rounded=1;" parent="1" vertex="1">
          <mxGeometry x="480" y="380" width="120" height="60" as="geometry" />
        </mxCell>
        <mxCell id="FvaYy1avRhP3Xkzn4hqu-6" value="Se muestra la información en la interfaz" style="whiteSpace=wrap;html=1;rounded=1;" parent="1" vertex="1">
          <mxGeometry x="480" y="480" width="120" height="60" as="geometry" />
        </mxCell>
        <mxCell id="Ek6N9CMWmfVQAumjDYVe-5" value="" style="edgeStyle=orthogonalEdgeStyle;rounded=0;orthogonalLoop=1;jettySize=auto;html=1;" edge="1" parent="1" source="Ek6N9CMWmfVQAumjDYVe-1" target="Ek6N9CMWmfVQAumjDYVe-4">
          <mxGeometry relative="1" as="geometry">
            <Array as="points">
              <mxPoint x="340" y="630" />
              <mxPoint x="340" y="630" />
            </Array>
          </mxGeometry>
        </mxCell>
        <mxCell id="Ek6N9CMWmfVQAumjDYVe-1" value="Cliente (hay varios)" style="whiteSpace=wrap;html=1;aspect=fixed;" vertex="1" parent="1">
          <mxGeometry x="160" y="600" width="160" height="160" as="geometry" />
        </mxCell>
        <mxCell id="Ek6N9CMWmfVQAumjDYVe-2" value="Servidor&lt;span style=&quot;color: rgba(0, 0, 0, 0); font-family: monospace; font-size: 0px; text-align: start; text-wrap-mode: nowrap;&quot;&gt;%3CmxGraphModel%3E%3Croot%3E%3CmxCell%20id%3D%220%22%2F%3E%3CmxCell%20id%3D%221%22%20parent%3D%220%22%2F%3E%3CmxCell%20id%3D%222%22%20value%3D%22Cliente%22%20style%3D%22whiteSpace%3Dwrap%3Bhtml%3D1%3Baspect%3Dfixed%3B%22%20vertex%3D%221%22%20parent%3D%221%22%3E%3CmxGeometry%20x%3D%2280%22%20y%3D%22600%22%20width%3D%22160%22%20height%3D%22160%22%20as%3D%22geometry%22%2F%3E%3C%2FmxCell%3E%3C%2Froot%3E%3C%2FmxGraphModel%3E&lt;/span&gt;" style="whiteSpace=wrap;html=1;aspect=fixed;" vertex="1" parent="1">
          <mxGeometry x="500" y="600" width="160" height="160" as="geometry" />
        </mxCell>
        <mxCell id="Ek6N9CMWmfVQAumjDYVe-13" value="" style="edgeStyle=orthogonalEdgeStyle;rounded=0;orthogonalLoop=1;jettySize=auto;html=1;exitX=0;exitY=0.75;exitDx=0;exitDy=0;" edge="1" parent="1" source="Ek6N9CMWmfVQAumjDYVe-3" target="Ek6N9CMWmfVQAumjDYVe-11">
          <mxGeometry relative="1" as="geometry" />
        </mxCell>
        <mxCell id="Ek6N9CMWmfVQAumjDYVe-3" value="API Spotify" style="whiteSpace=wrap;html=1;aspect=fixed;" vertex="1" parent="1">
          <mxGeometry x="840" y="600" width="160" height="160" as="geometry" />
        </mxCell>
        <mxCell id="Ek6N9CMWmfVQAumjDYVe-6" value="" style="edgeStyle=orthogonalEdgeStyle;rounded=0;orthogonalLoop=1;jettySize=auto;html=1;entryX=0.013;entryY=0.189;entryDx=0;entryDy=0;entryPerimeter=0;" edge="1" parent="1" source="Ek6N9CMWmfVQAumjDYVe-4" target="Ek6N9CMWmfVQAumjDYVe-2">
          <mxGeometry relative="1" as="geometry" />
        </mxCell>
        <mxCell id="Ek6N9CMWmfVQAumjDYVe-4" value="Cada vez que solicite información el usuario. Hace un request al servidor" style="whiteSpace=wrap;html=1;" vertex="1" parent="1">
          <mxGeometry x="350" y="600" width="120" height="60" as="geometry" />
        </mxCell>
        <mxCell id="Ek6N9CMWmfVQAumjDYVe-7" value="" style="edgeStyle=orthogonalEdgeStyle;rounded=0;orthogonalLoop=1;jettySize=auto;html=1;" edge="1" parent="1" target="Ek6N9CMWmfVQAumjDYVe-9">
          <mxGeometry relative="1" as="geometry">
            <mxPoint x="660" y="630" as="sourcePoint" />
            <Array as="points">
              <mxPoint x="680" y="630" />
              <mxPoint x="680" y="630" />
            </Array>
          </mxGeometry>
        </mxCell>
        <mxCell id="Ek6N9CMWmfVQAumjDYVe-8" value="" style="edgeStyle=orthogonalEdgeStyle;rounded=0;orthogonalLoop=1;jettySize=auto;html=1;entryX=0.021;entryY=0.189;entryDx=0;entryDy=0;entryPerimeter=0;" edge="1" parent="1" source="Ek6N9CMWmfVQAumjDYVe-9" target="Ek6N9CMWmfVQAumjDYVe-3">
          <mxGeometry relative="1" as="geometry">
            <mxPoint x="842" y="630" as="targetPoint" />
          </mxGeometry>
        </mxCell>
        <mxCell id="Ek6N9CMWmfVQAumjDYVe-9" value="Solicita todos los datos a la API" style="whiteSpace=wrap;html=1;" vertex="1" parent="1">
          <mxGeometry x="690" y="600" width="120" height="60" as="geometry" />
        </mxCell>
        <mxCell id="Ek6N9CMWmfVQAumjDYVe-15" style="edgeStyle=orthogonalEdgeStyle;rounded=0;orthogonalLoop=1;jettySize=auto;html=1;" edge="1" parent="1" source="Ek6N9CMWmfVQAumjDYVe-11" target="Ek6N9CMWmfVQAumjDYVe-14">
          <mxGeometry relative="1" as="geometry" />
        </mxCell>
        <mxCell id="Ek6N9CMWmfVQAumjDYVe-11" value="Devuelve los datos solicitados" style="whiteSpace=wrap;html=1;" vertex="1" parent="1">
          <mxGeometry x="690" y="690" width="120" height="60" as="geometry" />
        </mxCell>
        <mxCell id="Ek6N9CMWmfVQAumjDYVe-17" style="edgeStyle=orthogonalEdgeStyle;rounded=0;orthogonalLoop=1;jettySize=auto;html=1;entryX=0;entryY=0.5;entryDx=0;entryDy=0;startArrow=classic;startFill=1;endArrow=none;" edge="1" parent="1" source="Ek6N9CMWmfVQAumjDYVe-16" target="Ek6N9CMWmfVQAumjDYVe-14">
          <mxGeometry relative="1" as="geometry" />
        </mxCell>
        <mxCell id="Ek6N9CMWmfVQAumjDYVe-18" value="" style="edgeStyle=orthogonalEdgeStyle;rounded=0;orthogonalLoop=1;jettySize=auto;html=1;entryX=1;entryY=0.75;entryDx=0;entryDy=0;" edge="1" parent="1" source="Ek6N9CMWmfVQAumjDYVe-16" target="Ek6N9CMWmfVQAumjDYVe-1">
          <mxGeometry relative="1" as="geometry" />
        </mxCell>
        <mxCell id="Ek6N9CMWmfVQAumjDYVe-16" value="Devuelve los datos solicitados por el usuario" style="whiteSpace=wrap;html=1;" vertex="1" parent="1">
          <mxGeometry x="350" y="690" width="120" height="60" as="geometry" />
        </mxCell>
        <mxCell id="Ek6N9CMWmfVQAumjDYVe-14" value="Transforma los datos para lo que ha solicitado el usuario" style="whiteSpace=wrap;html=1;" vertex="1" parent="1">
          <mxGeometry x="520" y="690" width="120" height="60" as="geometry" />
        </mxCell>
        <mxCell id="Ek6N9CMWmfVQAumjDYVe-20" value="USUARIO" style="shape=umlActor;verticalLabelPosition=bottom;verticalAlign=top;html=1;outlineConnect=0;" vertex="1" parent="1">
          <mxGeometry x="50" y="650" width="30" height="60" as="geometry" />
        </mxCell>
      </root>
    </mxGraphModel>
  </diagram>
</mxfile>
